<mxfile host="app.diagrams.net" agent="Mozilla/5.0 (Windows NT 10.0; Win64; x64) AppleWebKit/537.36 (KHTML, like Gecko) Chrome/127.0.0.0 Safari/537.36" version="24.7.6">
  <diagram name="Página-1" id="Sy0p1ujfxlkSQ5I2N9-o">
    <mxGraphModel dx="913" dy="490" grid="1" gridSize="10" guides="1" tooltips="1" connect="1" arrows="1" fold="1" page="1" pageScale="1" pageWidth="1169" pageHeight="827" math="0" shadow="0">
      <root>
        <mxCell id="0" />
        <mxCell id="1" parent="0" />
        <mxCell id="rvpzDKOMXNACjBztgCms-6" value="" style="edgeStyle=orthogonalEdgeStyle;rounded=0;orthogonalLoop=1;jettySize=auto;html=1;entryX=0.25;entryY=0;entryDx=0;entryDy=0;exitX=0.5;exitY=0;exitDx=0;exitDy=0;curved=1;" edge="1" parent="1" source="mYkssnVN8zuhKRkWFqy8-14" target="mYkssnVN8zuhKRkWFqy8-15">
          <mxGeometry relative="1" as="geometry" />
        </mxCell>
        <mxCell id="rvpzDKOMXNACjBztgCms-9" value="1" style="edgeLabel;html=1;align=center;verticalAlign=middle;resizable=0;points=[];" vertex="1" connectable="0" parent="rvpzDKOMXNACjBztgCms-6">
          <mxGeometry x="-0.0416" y="-4" relative="1" as="geometry">
            <mxPoint x="19" y="-19" as="offset" />
          </mxGeometry>
        </mxCell>
        <mxCell id="mYkssnVN8zuhKRkWFqy8-14" value="LiveMarketing" style="rounded=0;whiteSpace=wrap;html=1;" parent="1" vertex="1">
          <mxGeometry x="230" y="150" width="120" height="60" as="geometry" />
        </mxCell>
        <mxCell id="mYkssnVN8zuhKRkWFqy8-21" value="" style="edgeStyle=orthogonalEdgeStyle;rounded=0;orthogonalLoop=1;jettySize=auto;html=1;startArrow=none;startFill=0;curved=1;entryX=0.5;entryY=0;entryDx=0;entryDy=0;exitX=0.75;exitY=0;exitDx=0;exitDy=0;" parent="1" source="mYkssnVN8zuhKRkWFqy8-15" target="mYkssnVN8zuhKRkWFqy8-20" edge="1">
          <mxGeometry relative="1" as="geometry" />
        </mxCell>
        <mxCell id="rvpzDKOMXNACjBztgCms-10" value="2" style="edgeLabel;html=1;align=center;verticalAlign=middle;resizable=0;points=[];" vertex="1" connectable="0" parent="mYkssnVN8zuhKRkWFqy8-21">
          <mxGeometry x="-0.2741" y="3" relative="1" as="geometry">
            <mxPoint x="20" y="-12" as="offset" />
          </mxGeometry>
        </mxCell>
        <mxCell id="rvpzDKOMXNACjBztgCms-8" style="edgeStyle=orthogonalEdgeStyle;rounded=0;orthogonalLoop=1;jettySize=auto;html=1;entryX=0.5;entryY=1;entryDx=0;entryDy=0;curved=1;exitX=0.25;exitY=1;exitDx=0;exitDy=0;" edge="1" parent="1" source="mYkssnVN8zuhKRkWFqy8-15" target="mYkssnVN8zuhKRkWFqy8-14">
          <mxGeometry relative="1" as="geometry" />
        </mxCell>
        <mxCell id="rvpzDKOMXNACjBztgCms-12" value="4" style="edgeLabel;html=1;align=center;verticalAlign=middle;resizable=0;points=[];" vertex="1" connectable="0" parent="rvpzDKOMXNACjBztgCms-8">
          <mxGeometry x="-0.622" y="-10" relative="1" as="geometry">
            <mxPoint x="-60" y="-10" as="offset" />
          </mxGeometry>
        </mxCell>
        <mxCell id="mYkssnVN8zuhKRkWFqy8-15" value="Communication Hub" style="whiteSpace=wrap;html=1;rounded=0;" parent="1" vertex="1">
          <mxGeometry x="420" y="140" width="120" height="60" as="geometry" />
        </mxCell>
        <mxCell id="rvpzDKOMXNACjBztgCms-7" style="edgeStyle=orthogonalEdgeStyle;rounded=0;orthogonalLoop=1;jettySize=auto;html=1;entryX=0.75;entryY=1;entryDx=0;entryDy=0;curved=1;exitX=0.5;exitY=1;exitDx=0;exitDy=0;" edge="1" parent="1" source="mYkssnVN8zuhKRkWFqy8-20" target="mYkssnVN8zuhKRkWFqy8-15">
          <mxGeometry relative="1" as="geometry" />
        </mxCell>
        <mxCell id="rvpzDKOMXNACjBztgCms-11" value="3" style="edgeLabel;html=1;align=center;verticalAlign=middle;resizable=0;points=[];" vertex="1" connectable="0" parent="rvpzDKOMXNACjBztgCms-7">
          <mxGeometry x="-0.3269" y="-1" relative="1" as="geometry">
            <mxPoint x="-41" y="-19" as="offset" />
          </mxGeometry>
        </mxCell>
        <mxCell id="mYkssnVN8zuhKRkWFqy8-20" value="SMSC" style="whiteSpace=wrap;html=1;rounded=0;" parent="1" vertex="1">
          <mxGeometry x="620" y="150" width="120" height="60" as="geometry" />
        </mxCell>
        <mxCell id="mYkssnVN8zuhKRkWFqy8-22" value="&lt;div&gt;Envío SMS&amp;nbsp;&lt;/div&gt;Bind&lt;div&gt;Sincrono&lt;/div&gt;" style="text;html=1;align=left;verticalAlign=middle;whiteSpace=wrap;rounded=0;" parent="1" vertex="1">
          <mxGeometry x="90" y="55" width="120" height="50" as="geometry" />
        </mxCell>
        <mxCell id="mYkssnVN8zuhKRkWFqy8-24" value="Envío" style="html=1;dashed=0;whiteSpace=wrap;shape=mxgraph.dfd.start" parent="1" vertex="1">
          <mxGeometry x="90" y="975" width="80" height="30" as="geometry" />
        </mxCell>
        <mxCell id="mYkssnVN8zuhKRkWFqy8-25" value="" style="edgeStyle=orthogonalEdgeStyle;rounded=0;orthogonalLoop=1;jettySize=auto;html=1;" parent="1" source="mYkssnVN8zuhKRkWFqy8-26" target="mYkssnVN8zuhKRkWFqy8-28" edge="1">
          <mxGeometry relative="1" as="geometry" />
        </mxCell>
        <mxCell id="mYkssnVN8zuhKRkWFqy8-26" value="LiveMarketing" style="rounded=0;whiteSpace=wrap;html=1;" parent="1" vertex="1">
          <mxGeometry x="210" y="960" width="120" height="60" as="geometry" />
        </mxCell>
        <mxCell id="mYkssnVN8zuhKRkWFqy8-27" value="" style="edgeStyle=orthogonalEdgeStyle;rounded=0;orthogonalLoop=1;jettySize=auto;html=1;startArrow=none;startFill=0;" parent="1" source="mYkssnVN8zuhKRkWFqy8-28" target="mYkssnVN8zuhKRkWFqy8-29" edge="1">
          <mxGeometry relative="1" as="geometry" />
        </mxCell>
        <mxCell id="mYkssnVN8zuhKRkWFqy8-28" value="Communication Hub" style="whiteSpace=wrap;html=1;rounded=0;" parent="1" vertex="1">
          <mxGeometry x="390" y="960" width="120" height="60" as="geometry" />
        </mxCell>
        <mxCell id="mYkssnVN8zuhKRkWFqy8-29" value="SMSC" style="whiteSpace=wrap;html=1;rounded=0;" parent="1" vertex="1">
          <mxGeometry x="570" y="960" width="120" height="60" as="geometry" />
        </mxCell>
        <mxCell id="mYkssnVN8zuhKRkWFqy8-30" value="&lt;div&gt;&lt;div&gt;Envío SMS&amp;nbsp;&lt;/div&gt;Bind&lt;div&gt;Asincrono&lt;/div&gt;&lt;/div&gt;" style="text;html=1;align=left;verticalAlign=middle;whiteSpace=wrap;rounded=0;" parent="1" vertex="1">
          <mxGeometry x="90" y="920" width="170" height="30" as="geometry" />
        </mxCell>
        <mxCell id="mYkssnVN8zuhKRkWFqy8-39" value="Respuesta" style="html=1;dashed=0;whiteSpace=wrap;shape=mxgraph.dfd.start" parent="1" vertex="1">
          <mxGeometry x="90" y="1196" width="80" height="30" as="geometry" />
        </mxCell>
        <mxCell id="mYkssnVN8zuhKRkWFqy8-40" value="" style="edgeStyle=orthogonalEdgeStyle;rounded=0;orthogonalLoop=1;jettySize=auto;html=1;" parent="1" source="mYkssnVN8zuhKRkWFqy8-41" target="mYkssnVN8zuhKRkWFqy8-43" edge="1">
          <mxGeometry relative="1" as="geometry" />
        </mxCell>
        <mxCell id="mYkssnVN8zuhKRkWFqy8-41" value="SMSC" style="rounded=0;whiteSpace=wrap;html=1;" parent="1" vertex="1">
          <mxGeometry x="210" y="1181" width="120" height="60" as="geometry" />
        </mxCell>
        <mxCell id="mYkssnVN8zuhKRkWFqy8-42" value="" style="edgeStyle=orthogonalEdgeStyle;rounded=0;orthogonalLoop=1;jettySize=auto;html=1;startArrow=none;startFill=0;" parent="1" source="mYkssnVN8zuhKRkWFqy8-43" target="mYkssnVN8zuhKRkWFqy8-44" edge="1">
          <mxGeometry relative="1" as="geometry" />
        </mxCell>
        <mxCell id="mYkssnVN8zuhKRkWFqy8-43" value="Communication Hub" style="whiteSpace=wrap;html=1;rounded=0;" parent="1" vertex="1">
          <mxGeometry x="390" y="1181" width="120" height="60" as="geometry" />
        </mxCell>
        <mxCell id="mYkssnVN8zuhKRkWFqy8-44" value="LiveMarketing" style="whiteSpace=wrap;html=1;rounded=0;" parent="1" vertex="1">
          <mxGeometry x="570" y="1181" width="120" height="60" as="geometry" />
        </mxCell>
        <mxCell id="mYkssnVN8zuhKRkWFqy8-45" value="" style="edgeStyle=orthogonalEdgeStyle;rounded=0;orthogonalLoop=1;jettySize=auto;html=1;" parent="1" source="mYkssnVN8zuhKRkWFqy8-46" target="mYkssnVN8zuhKRkWFqy8-48" edge="1">
          <mxGeometry relative="1" as="geometry" />
        </mxCell>
        <mxCell id="mYkssnVN8zuhKRkWFqy8-46" value="Envío" style="html=1;dashed=0;whiteSpace=wrap;shape=mxgraph.dfd.start" parent="1" vertex="1">
          <mxGeometry x="80" y="1405" width="80" height="30" as="geometry" />
        </mxCell>
        <mxCell id="mYkssnVN8zuhKRkWFqy8-47" value="" style="edgeStyle=orthogonalEdgeStyle;rounded=0;orthogonalLoop=1;jettySize=auto;html=1;" parent="1" source="mYkssnVN8zuhKRkWFqy8-48" target="mYkssnVN8zuhKRkWFqy8-50" edge="1">
          <mxGeometry relative="1" as="geometry" />
        </mxCell>
        <mxCell id="mYkssnVN8zuhKRkWFqy8-48" value="LiveMarketing" style="rounded=0;whiteSpace=wrap;html=1;" parent="1" vertex="1">
          <mxGeometry x="200" y="1390" width="120" height="60" as="geometry" />
        </mxCell>
        <mxCell id="mYkssnVN8zuhKRkWFqy8-49" value="" style="edgeStyle=orthogonalEdgeStyle;rounded=0;orthogonalLoop=1;jettySize=auto;html=1;startArrow=none;startFill=0;" parent="1" source="mYkssnVN8zuhKRkWFqy8-50" target="mYkssnVN8zuhKRkWFqy8-51" edge="1">
          <mxGeometry relative="1" as="geometry" />
        </mxCell>
        <mxCell id="mYkssnVN8zuhKRkWFqy8-50" value="Communication Hub" style="whiteSpace=wrap;html=1;rounded=0;" parent="1" vertex="1">
          <mxGeometry x="380" y="1390" width="120" height="60" as="geometry" />
        </mxCell>
        <mxCell id="mYkssnVN8zuhKRkWFqy8-51" value="SMSC" style="whiteSpace=wrap;html=1;rounded=0;" parent="1" vertex="1">
          <mxGeometry x="560" y="1390" width="120" height="60" as="geometry" />
        </mxCell>
        <mxCell id="mYkssnVN8zuhKRkWFqy8-52" value="&lt;div&gt;&lt;div&gt;Envío SMS&amp;nbsp;&lt;/div&gt;Bind&lt;div&gt;Asincrono&lt;/div&gt;&lt;/div&gt;" style="text;html=1;align=left;verticalAlign=middle;whiteSpace=wrap;rounded=0;" parent="1" vertex="1">
          <mxGeometry x="80" y="1350" width="170" height="30" as="geometry" />
        </mxCell>
        <mxCell id="mYkssnVN8zuhKRkWFqy8-53" value="" style="edgeStyle=orthogonalEdgeStyle;rounded=0;orthogonalLoop=1;jettySize=auto;html=1;" parent="1" source="mYkssnVN8zuhKRkWFqy8-54" target="mYkssnVN8zuhKRkWFqy8-56" edge="1">
          <mxGeometry relative="1" as="geometry" />
        </mxCell>
        <mxCell id="mYkssnVN8zuhKRkWFqy8-54" value="Respuesta" style="html=1;dashed=0;whiteSpace=wrap;shape=mxgraph.dfd.start" parent="1" vertex="1">
          <mxGeometry x="80" y="1505" width="80" height="30" as="geometry" />
        </mxCell>
        <mxCell id="mYkssnVN8zuhKRkWFqy8-55" value="" style="edgeStyle=orthogonalEdgeStyle;rounded=0;orthogonalLoop=1;jettySize=auto;html=1;" parent="1" source="mYkssnVN8zuhKRkWFqy8-56" target="mYkssnVN8zuhKRkWFqy8-58" edge="1">
          <mxGeometry relative="1" as="geometry" />
        </mxCell>
        <mxCell id="mYkssnVN8zuhKRkWFqy8-56" value="SMSC" style="rounded=0;whiteSpace=wrap;html=1;" parent="1" vertex="1">
          <mxGeometry x="200" y="1490" width="120" height="60" as="geometry" />
        </mxCell>
        <mxCell id="mYkssnVN8zuhKRkWFqy8-57" value="" style="edgeStyle=orthogonalEdgeStyle;rounded=0;orthogonalLoop=1;jettySize=auto;html=1;startArrow=none;startFill=0;" parent="1" source="mYkssnVN8zuhKRkWFqy8-58" target="mYkssnVN8zuhKRkWFqy8-59" edge="1">
          <mxGeometry relative="1" as="geometry" />
        </mxCell>
        <mxCell id="mYkssnVN8zuhKRkWFqy8-58" value="Communication Hub" style="whiteSpace=wrap;html=1;rounded=0;" parent="1" vertex="1">
          <mxGeometry x="380" y="1490" width="120" height="60" as="geometry" />
        </mxCell>
        <mxCell id="mYkssnVN8zuhKRkWFqy8-59" value="LiveMarketing" style="whiteSpace=wrap;html=1;rounded=0;" parent="1" vertex="1">
          <mxGeometry x="560" y="1490" width="120" height="60" as="geometry" />
        </mxCell>
        <mxCell id="mYkssnVN8zuhKRkWFqy8-67" value="" style="edgeStyle=orthogonalEdgeStyle;rounded=0;orthogonalLoop=1;jettySize=auto;html=1;dashed=1;endArrow=none;endFill=0;" parent="1" source="mYkssnVN8zuhKRkWFqy8-64" target="mYkssnVN8zuhKRkWFqy8-28" edge="1">
          <mxGeometry relative="1" as="geometry" />
        </mxCell>
        <mxCell id="mYkssnVN8zuhKRkWFqy8-64" value="Templates&lt;div&gt;Senders&lt;/div&gt;" style="shape=process;whiteSpace=wrap;html=1;backgroundOutline=1;dashed=1;" parent="1" vertex="1">
          <mxGeometry x="390" y="860" width="120" height="60" as="geometry" />
        </mxCell>
        <mxCell id="mYkssnVN8zuhKRkWFqy8-66" value="" style="edgeStyle=orthogonalEdgeStyle;rounded=0;orthogonalLoop=1;jettySize=auto;html=1;endArrow=none;endFill=0;dashed=1;" parent="1" source="mYkssnVN8zuhKRkWFqy8-65" target="mYkssnVN8zuhKRkWFqy8-26" edge="1">
          <mxGeometry relative="1" as="geometry" />
        </mxCell>
        <mxCell id="mYkssnVN8zuhKRkWFqy8-65" value="Conversational Engine" style="shape=process;whiteSpace=wrap;html=1;backgroundOutline=1;dashed=1;" parent="1" vertex="1">
          <mxGeometry x="210" y="860" width="120" height="60" as="geometry" />
        </mxCell>
        <mxCell id="mYkssnVN8zuhKRkWFqy8-70" value="" style="edgeStyle=orthogonalEdgeStyle;rounded=0;orthogonalLoop=1;jettySize=auto;html=1;" parent="1" source="mYkssnVN8zuhKRkWFqy8-68" target="mYkssnVN8zuhKRkWFqy8-43" edge="1">
          <mxGeometry relative="1" as="geometry" />
        </mxCell>
        <mxCell id="mYkssnVN8zuhKRkWFqy8-68" value="&lt;div&gt;Webhooks&lt;/div&gt;" style="shape=process;whiteSpace=wrap;html=1;backgroundOutline=1;dashed=1;" parent="1" vertex="1">
          <mxGeometry x="390" y="1081" width="120" height="60" as="geometry" />
        </mxCell>
        <mxCell id="mYkssnVN8zuhKRkWFqy8-71" value="" style="edgeStyle=orthogonalEdgeStyle;rounded=0;orthogonalLoop=1;jettySize=auto;html=1;" parent="1" source="mYkssnVN8zuhKRkWFqy8-69" target="mYkssnVN8zuhKRkWFqy8-44" edge="1">
          <mxGeometry relative="1" as="geometry" />
        </mxCell>
        <mxCell id="mYkssnVN8zuhKRkWFqy8-69" value="Webhook" style="shape=process;whiteSpace=wrap;html=1;backgroundOutline=1;dashed=1;" parent="1" vertex="1">
          <mxGeometry x="570" y="1081" width="120" height="60" as="geometry" />
        </mxCell>
        <mxCell id="rvpzDKOMXNACjBztgCms-5" value="" style="edgeStyle=orthogonalEdgeStyle;rounded=0;orthogonalLoop=1;jettySize=auto;html=1;curved=1;" edge="1" parent="1" source="rvpzDKOMXNACjBztgCms-1" target="mYkssnVN8zuhKRkWFqy8-14">
          <mxGeometry relative="1" as="geometry" />
        </mxCell>
        <mxCell id="rvpzDKOMXNACjBztgCms-1" value="" style="strokeWidth=2;html=1;shape=mxgraph.flowchart.start_2;whiteSpace=wrap;" vertex="1" parent="1">
          <mxGeometry x="135" y="140" width="30" height="30" as="geometry" />
        </mxCell>
        <mxCell id="rvpzDKOMXNACjBztgCms-2" value="" style="strokeWidth=2;html=1;shape=mxgraph.flowchart.terminator;whiteSpace=wrap;" vertex="1" parent="1">
          <mxGeometry x="125" y="210" width="50" height="30" as="geometry" />
        </mxCell>
        <mxCell id="rvpzDKOMXNACjBztgCms-13" style="edgeStyle=orthogonalEdgeStyle;rounded=0;orthogonalLoop=1;jettySize=auto;html=1;entryX=1;entryY=0.5;entryDx=0;entryDy=0;entryPerimeter=0;curved=1;" edge="1" parent="1" source="mYkssnVN8zuhKRkWFqy8-14" target="rvpzDKOMXNACjBztgCms-2">
          <mxGeometry relative="1" as="geometry" />
        </mxCell>
      </root>
    </mxGraphModel>
  </diagram>
</mxfile>
